<?xml version="1.0" standalone="no"?>
<!DOCTYPE svg PUBLIC "-//W3C//DTD SVG 20010904//EN"
 "http://www.w3.org/TR/2001/REC-SVG-20010904/DTD/svg10.dtd">
<svg version="1.0" xmlns="http://www.w3.org/2000/svg"
 width="224.000000pt" height="136.000000pt" viewBox="0 0 224.000000 136.000000"
 preserveAspectRatio="xMidYMid meet">
<metadata>
Created by potrace 1.16, written by Peter Selinger 2001-2019
</metadata>
<g transform="translate(0.000000,136.000000) scale(0.100000,-0.100000)"
fill="#000000" stroke="none">
<path d="M795 1245 c-38 -13 -160 -49 -270 -80 -214 -60 -315 -102 -381 -159
-54 -46 -74 -90 -74 -164 0 -67 19 -101 73 -129 41 -21 133 -21 172 -1 63 33
105 104 105 178 0 57 -17 50 -30 -13 -21 -103 -79 -157 -154 -143 -60 11 -87
77 -66 155 26 96 150 178 375 250 72 23 143 46 158 51 26 9 23 3 -27 -50 -104
-113 -158 -227 -241 -510 -64 -219 -94 -301 -141 -390 -38 -72 -40 -80 -19
-80 19 0 288 161 442 265 l122 83 85 -73 c46 -40 96 -81 110 -93 15 -11 32
-35 38 -54 53 -155 214 -219 433 -173 85 18 196 70 252 119 124 108 159 275
77 366 -44 48 -90 64 -164 57 -89 -8 -164 -55 -234 -147 -61 -80 -32 -81 41
-1 75 82 105 101 163 101 81 0 125 -85 100 -196 -47 -207 -292 -350 -434 -253
-64 42 -106 160 -91 254 5 40 14 51 81 107 89 75 125 137 126 220 1 29 -2 67
-6 83 -6 28 -1 37 49 93 136 150 354 272 485 272 58 -1 116 -33 129 -72 27
-84 -53 -223 -154 -269 -62 -29 -111 -25 -147 11 -28 29 -30 35 -26 86 5 60
-6 80 -22 39 -40 -105 34 -195 161 -195 66 0 162 37 213 81 72 63 95 128 77
210 -37 163 -298 181 -585 39 -56 -27 -137 -76 -180 -109 -64 -48 -83 -58 -98
-50 -22 12 -22 3 3 74 30 86 24 178 -15 211 -35 31 -77 31 -112 0 -36 -30 -38
-91 -4 -118 22 -18 21 -25 -6 -119 -3 -10 -20 -20 -38 -23 -19 -4 -46 -16 -60
-27 l-26 -20 -28 20 c-74 52 -186 45 -254 -17 -109 -99 -115 -265 -13 -367
l43 -44 -97 -71 c-100 -74 -281 -193 -281 -186 0 3 15 31 34 63 49 85 101 222
168 443 75 247 122 346 199 422 32 31 55 59 52 62 -8 8 -7 8 -88 -19z m157
-299 c15 -4 44 -21 64 -38 25 -22 40 -29 48 -22 79 58 97 66 145 66 63 0 113
-29 145 -85 35 -60 41 -105 22 -171 -15 -52 -25 -63 -153 -178 -75 -68 -143
-128 -152 -135 -14 -9 -40 9 -161 117 -159 141 -179 170 -180 258 0 65 17 107
60 149 30 29 96 54 125 47 6 -1 22 -5 37 -8z"/>
</g>
</svg>
